<svg width="512" height="512" viewBox="0 0 512 512" fill="none" xmlns="http://www.w3.org/2000/svg">
  <defs>
    <linearGradient id="bgGrad" x1="0%" y1="0%" x2="100%" y2="100%">
      <stop offset="0%" style="stop-color:#6366f1"/>
      <stop offset="100%" style="stop-color:#8b5cf6"/>
    </linearGradient>
  </defs>

  <!-- Background rounded square -->
  <rect x="16" y="16" width="480" height="480" rx="96" fill="url(#bgGrad)"/>

  <!-- Grid of 4 image frames representing multi-model comparison -->
  <!-- Top left -->
  <rect x="72" y="72" width="160" height="160" rx="20" fill="white"/>
  <rect x="88" y="88" width="128" height="100" rx="12" fill="#e0e7ff"/>
  <circle cx="190" cy="110" r="16" fill="#fbbf24"/>
  <path d="M100 170 L140 130 L165 150 L200 115 V172 H100 Z" fill="#6366f1" opacity="0.7"/>

  <!-- Top right -->
  <rect x="280" y="72" width="160" height="160" rx="20" fill="white" opacity="0.85"/>
  <rect x="296" y="88" width="128" height="100" rx="12" fill="#fef3c7"/>
  <circle cx="398" cy="110" r="16" fill="#ec4899"/>
  <path d="M308 170 L348 135 L373 155 L408 120 V172 H308 Z" fill="#f59e0b" opacity="0.7"/>

  <!-- Bottom left -->
  <rect x="72" y="280" width="160" height="160" rx="20" fill="white" opacity="0.85"/>
  <rect x="88" y="296" width="128" height="100" rx="12" fill="#d1fae5"/>
  <circle cx="190" cy="318" r="16" fill="#f97316"/>
  <path d="M100 378 L145 338 L170 358 L200 323 V380 H100 Z" fill="#10b981" opacity="0.7"/>

  <!-- Bottom right -->
  <rect x="280" y="280" width="160" height="160" rx="20" fill="white" opacity="0.7"/>
  <rect x="296" y="296" width="128" height="100" rx="12" fill="#fce7f3"/>
  <circle cx="398" cy="318" r="16" fill="#06b6d4"/>
  <path d="M308 378 L353 343 L378 363 L408 328 V380 H308 Z" fill="#db2777" opacity="0.7"/>

  <!-- Center selection indicator - checkmark on top-left -->
  <circle cx="72" cy="72" r="28" fill="#10b981"/>
  <path d="M58 72 L68 82 L86 62" stroke="white" stroke-width="5" stroke-linecap="round" stroke-linejoin="round"/>
</svg>